<svg width="167" height="165" viewBox="0 0 167 165" fill="none" xmlns="http://www.w3.org/2000/svg">
<circle cx="82.5" cy="82.5" r="82.5" fill="white"/>
<path d="M43.78 165C44.9533 159.72 46.5667 154 48.62 147.84C50.6733 141.533 52.8733 135.007 55.22 128.26C58.5933 119.46 60.28 111.467 60.28 104.28C60.28 103.547 60.28 102.813 60.28 102.08C60.28 101.2 60.2067 100.393 60.06 99.66C59.18 93.3533 57.5667 86.3133 55.22 78.54C52.8733 70.7667 50.3067 63.14 47.52 55.66C44.7333 48.3267 41.58 42.02 38.06 36.74C34.54 31.46 30.2867 28.82 25.3 28.82C22.22 28.82 18.7733 30.14 14.96 32.78C11.2933 35.42 7.11333 39.82 2.42 45.98C2.27333 46.1267 2.12667 46.2 1.98 46.2C1.54 46.2 1.24667 45.6867 1.1 44.66C0.953333 43.6333 0.953333 42.9 1.1 42.46C4.32667 36.0067 7.7 30.4333 11.22 25.74C14.8867 21.0467 19.2133 17.5267 24.2 15.18C29.3333 12.6867 35.7133 11.66 43.34 12.1C50.6733 12.3933 56.1 15.18 59.62 20.46C63.14 25.74 66.2933 32.9267 69.08 42.02C71.28 49.6467 73.5533 57.86 75.9 66.66C78.2467 75.3133 80.3733 83.38 82.28 90.86C87.8533 83.2333 93.7933 74.8733 100.1 65.78C106.407 56.6867 112.64 47.74 118.8 38.94C125.107 30.14 130.753 22.44 135.74 15.84C137.353 13.7867 139.847 12.54 143.22 12.1C146.593 11.5133 150.113 11.22 153.78 11.22C156.127 11.22 158.4 11.2933 160.6 11.44C162.8 11.44 164.707 11.44 166.32 11.44C159.867 15.9867 152.9 21.7067 145.42 28.6C137.94 35.4933 130.533 43.1933 123.2 51.7C116.747 59.18 110.147 68.0533 103.4 78.32C96.6533 88.5867 90.5667 99.66 85.14 111.54C79.7133 123.273 75.68 135.227 73.04 147.4C72.4533 149.893 72.0133 152.24 71.72 154.44C71.4267 156.493 71.28 158.327 71.28 159.94C71.28 162.287 71.5733 163.973 72.16 165H43.78Z" fill="#0A192F"/>
</svg>
